<svg xmlns="http://www.w3.org/2000/svg" width="1600" height="1000" viewBox="0 0 1600 1000">
<style>
.title{font:700 38px Arial;fill:#102a43}.sub{font:18px Arial;fill:#486581}
.h{font:700 20px Arial;fill:#102a43}.t{font:15px Arial;fill:#243b53}
.box{fill:#fff;stroke:#3b82f6;stroke-width:2;rx:16}.green{stroke:#16a34a}.orange{stroke:#ea580c}.purple{stroke:#7c3aed}.gray{stroke:#64748b}
.arrow{stroke:#334e68;stroke-width:3;fill:none;marker-end:url(#a)}
</style>
<defs><marker id="a" markerWidth="10" markerHeight="10" refX="9" refY="3" orient="auto"><path d="M0,0 L0,6 L9,3 z" fill="#334e68"/></marker></defs>
<rect width="1600" height="1000" fill="#f8fafc"/>
<text x="800" y="55" text-anchor="middle" class="title">AWS Data Engineering Techniques Platform</text>
<text x="800" y="88" text-anchor="middle" class="sub">Cloud-deployable labs for Hadoop, Spark, Hive, Pig, HBase and distributed K-Means</text>

<rect x="50" y="145" width="260" height="180" class="box gray"/>
<text x="180" y="180" text-anchor="middle" class="h">Data Producers</text>
<text x="80" y="220" class="t">• Web and mobile events</text><text x="80" y="250" class="t">• Transaction systems</text>
<text x="80" y="280" class="t">• Logs and flat files</text><text x="80" y="310" class="t">• Streaming/batch sources</text>

<rect x="390" y="145" width="310" height="180" class="box green"/>
<text x="545" y="180" text-anchor="middle" class="h">Amazon S3 Data Lake</text>
<text x="420" y="220" class="t">Raw → curated → analytics zones</text><text x="420" y="250" class="t">Jobs, bootstrap scripts and logs</text>
<text x="420" y="280" class="t">Encrypted objects and lifecycle rules</text>

<rect x="790" y="125" width="520" height="230" class="box orange"/>
<text x="1050" y="165" text-anchor="middle" class="h">Amazon EMR Cluster in Private Subnets</text>
<rect x="825" y="200" width="130" height="105" class="box purple"/><text x="890" y="230" text-anchor="middle" class="h">Primary</text><text x="845" y="265" class="t">YARN RM</text><text x="845" y="290" class="t">NameNode</text>
<rect x="980" y="200" width="130" height="105" class="box green"/><text x="1045" y="230" text-anchor="middle" class="h">Core</text><text x="995" y="265" class="t">DataNode</text><text x="995" y="290" class="t">NodeManager</text>
<rect x="1135" y="200" width="130" height="105" class="box gray"/><text x="1200" y="230" text-anchor="middle" class="h">Task</text><text x="1150" y="265" class="t">Compute-only</text><text x="1150" y="290" class="t">Elastic scale</text>

<rect x="1400" y="145" width="150" height="180" class="box purple"/>
<text x="1475" y="180" text-anchor="middle" class="h">Operations</text>
<text x="1420" y="220" class="t">CloudWatch</text><text x="1420" y="250" class="t">IAM</text><text x="1420" y="280" class="t">KMS</text><text x="1420" y="310" class="t">SSM</text>

<path d="M310 235 H390" class="arrow"/><path d="M700 235 H790" class="arrow"/><path d="M1310 235 H1400" class="arrow"/>

<rect x="100" y="440" width="250" height="180" class="box"/>
<text x="225" y="480" text-anchor="middle" class="h">Hadoop / MapReduce</text>
<text x="130" y="520" class="t">HDFS commands</text><text x="130" y="550" class="t">Python mapper/reducer</text><text x="130" y="580" class="t">YARN execution</text>

<rect x="400" y="440" width="250" height="180" class="box orange"/>
<text x="525" y="480" text-anchor="middle" class="h">Spark / PySpark</text>
<text x="430" y="520" class="t">DataFrames and SQL</text><text x="430" y="550" class="t">Partitioned Parquet</text><text x="430" y="580" class="t">Distributed transforms</text>

<rect x="700" y="440" width="250" height="180" class="box green"/>
<text x="825" y="480" text-anchor="middle" class="h">Hive / Pig</text>
<text x="730" y="520" class="t">Schema-on-read SQL</text><text x="730" y="550" class="t">ETL data flows</text><text x="730" y="580" class="t">S3-backed tables</text>

<rect x="1000" y="440" width="250" height="180" class="box purple"/>
<text x="1125" y="480" text-anchor="middle" class="h">HBase</text>
<text x="1030" y="520" class="t">Wide-column storage</text><text x="1030" y="550" class="t">RegionServers</text><text x="1030" y="580" class="t">Low-latency lookups</text>

<rect x="1300" y="440" width="250" height="180" class="box gray"/>
<text x="1425" y="480" text-anchor="middle" class="h">Spark MLlib</text>
<text x="1330" y="520" class="t">Feature vectors</text><text x="1330" y="550" class="t">K-Means clustering</text><text x="1330" y="580" class="t">Segment outputs</text>

<path d="M1050 355 V400 H225 V440" class="arrow"/><path d="M1050 400 H525 V440" class="arrow"/>
<path d="M1050 400 H825 V440" class="arrow"/><path d="M1050 400 H1125 V440" class="arrow"/><path d="M1050 400 H1425 V440" class="arrow"/>

<rect x="250" y="735" width="1100" height="150" class="box green"/>
<text x="800" y="775" text-anchor="middle" class="h">Business Outcomes</text>
<text x="300" y="825" class="t">Customer 360 • Behavioral segmentation • Fraud/risk analytics • Operational reporting • Scalable ETL • Data-quality evidence</text>
<text x="430" y="860" class="t">Reproducible notebooks + infrastructure as code + configuration baselines + audit-ready logs</text>
<path d="M225 620 V700 H800 V735" class="arrow"/><path d="M525 620 V700" class="arrow"/><path d="M825 620 V700" class="arrow"/><path d="M1125 620 V700" class="arrow"/><path d="M1425 620 V700 H800" class="arrow"/>
</svg>